<?xml version="1.0" encoding="UTF-8" standalone="no"?>
<!-- Created with Inkscape (http://www.inkscape.org/) -->

<svg
   xmlns:dc="http://purl.org/dc/elements/1.1/"
   xmlns:cc="http://creativecommons.org/ns#"
   xmlns:rdf="http://www.w3.org/1999/02/22-rdf-syntax-ns#"
   xmlns:svg="http://www.w3.org/2000/svg"
   xmlns="http://www.w3.org/2000/svg"
   version="1.1"
   width="103.46438"
   height="103.46562"
   id="svg3764"
   xml:space="preserve"><metadata
     id="metadata3770"><rdf:RDF><cc:Work
         rdf:about=""><dc:format>image/svg+xml</dc:format><dc:type
           rdf:resource="http://purl.org/dc/dcmitype/StillImage" /><dc:title></dc:title></cc:Work></rdf:RDF></metadata><defs
     id="defs3768"><clipPath
       id="clipPath3778"><path
         d="m 0,82.772 82.771,0 L 82.771,0 0,0 0,82.772 z"
         id="path3780" /></clipPath></defs><g
     transform="matrix(1.25,0,0,-1.25,0,103.46562)"
     id="g3772"><g
       id="g3774"><g
         clip-path="url(#clipPath3778)"
         id="g3776"><g
           transform="translate(82.4878,41.3857)"
           id="g3782"><path
             d="m 0,0 c 0,-22.7 -18.402,-41.101 -41.103,-41.101 -22.7,0 -41.102,18.401 -41.102,41.101 0,22.701 18.402,41.102 41.102,41.102 C -18.402,41.102 0,22.701 0,0"
             id="path3784"
             style="fill:#baabdc;fill-opacity:1;fill-rule:nonzero;stroke:none" /></g><g
           transform="translate(38.498,69.0947)"
           id="g3786"><path
             d="m 0,0 5.893,0 c 0.234,-1.978 3.535,-3.957 3.535,-3.957 4.008,-1.235 -0.235,-9.148 -0.235,-9.148 -1.416,-2.225 -0.472,-7.665 -0.472,-7.665 2.593,-1.238 3.535,-6.677 3.535,-6.677 l 0,-7.171 -18.736,0 0,7.171 c 0,0 0.943,5.439 3.535,6.677 0,0 0.941,5.44 -0.473,7.665 0,0 -4.242,7.913 -0.234,9.148 0,0 3.298,1.979 3.535,3.957 l 5.89,0"
             id="path3788"
             style="fill:#ffffff;fill-opacity:1;fill-rule:nonzero;stroke:none" /></g><g
           transform="translate(38.3809,69.0947)"
           id="g3790"><path
             d="M 0,0 5.891,0 0,0 z"
             id="path3792"
             style="fill:#ffffff;fill-opacity:1;fill-rule:nonzero;stroke:none" /></g><g
           transform="translate(43.0938,36.4551)"
           id="g3794"><path
             d="m 0,0 -2.826,0 0,-20.77 1.178,0 1.648,0 L 0,0 z"
             id="path3796"
             style="fill:#ffffff;fill-opacity:1;fill-rule:nonzero;stroke:none" /></g><g
           transform="translate(41.4453,15.6855)"
           id="g3798"><path
             d="m 0,0 c -4.035,0 -7.307,-0.998 -7.307,-2.226 0,-1.229 3.114,-1.318 7.151,-1.318 4.033,0 7.463,0.089 7.463,1.318 C 7.307,-0.998 4.035,0 0,0"
             id="path3800"
             style="fill:#ffffff;fill-opacity:1;fill-rule:nonzero;stroke:none" /></g><g
           transform="translate(38.4199,69.709)"
           id="g3802"><path
             d="M 0,0 5.971,0 C 5.971,0 3.418,2.072 0,0"
             id="path3804"
             style="fill:#ffffff;fill-opacity:1;fill-rule:nonzero;stroke:none" /></g></g></g></g></svg>