<?xml version="1.0" encoding="UTF-8" standalone="no"?>
<!-- Created with Inkscape (http://www.inkscape.org/) -->

<svg
   xmlns:dc="http://purl.org/dc/elements/1.1/"
   xmlns:cc="http://creativecommons.org/ns#"
   xmlns:rdf="http://www.w3.org/1999/02/22-rdf-syntax-ns#"
   xmlns:svg="http://www.w3.org/2000/svg"
   xmlns="http://www.w3.org/2000/svg"
   version="1.1"
   width="103.46438"
   height="103.465"
   id="svg3068"
   xml:space="preserve"><metadata
     id="metadata3074"><rdf:RDF><cc:Work
         rdf:about=""><dc:format>image/svg+xml</dc:format><dc:type
           rdf:resource="http://purl.org/dc/dcmitype/StillImage" /><dc:title></dc:title></cc:Work></rdf:RDF></metadata><defs
     id="defs3072"><clipPath
       id="clipPath3082"><path
         d="m 0,82.772 82.771,0 L 82.771,0 0,0 0,82.772 z"
         id="path3084" /></clipPath></defs><g
     transform="matrix(1.25,0,0,-1.25,0,103.465)"
     id="g3076"><g
       id="g3078"><g
         clip-path="url(#clipPath3082)"
         id="g3080"><g
           transform="translate(82.4878,41.3857)"
           id="g3086"><path
             d="m 0,0 c 0,-22.699 -18.402,-41.101 -41.103,-41.101 -22.7,0 -41.102,18.402 -41.102,41.101 0,22.7 18.402,41.103 41.102,41.103 C -18.402,41.103 0,22.7 0,0"
             id="path3088"
             style="fill:#e895b8;fill-opacity:1;fill-rule:nonzero;stroke:none" /></g><g
           transform="translate(56.6055,61.5024)"
           id="g3090"><path
             d="M 0,0 C 0.004,0.002 0.01,0.006 0.013,0.007 0.367,0.174 -0.291,-0.111 0,0"
             id="path3092"
             style="fill:#ffffff;fill-opacity:1;fill-rule:nonzero;stroke:none" /></g><g
           transform="translate(55.6084,60.9248)"
           id="g3094"><path
             d="M 0,0 C 0.292,0.252 -0.21,-0.143 0,0"
             id="path3096"
             style="fill:#ffffff;fill-opacity:1;fill-rule:nonzero;stroke:none" /></g><g
           transform="translate(54.8594,60.1675)"
           id="g3098"><path
             d="M 0,0 C 0.021,0.03 0.042,0.061 0.063,0.092 0.034,0.047 0.013,0.02 0,0"
             id="path3100"
             style="fill:#ffffff;fill-opacity:1;fill-rule:nonzero;stroke:none" /></g><g
           transform="translate(58.0264,61.8882)"
           id="g3102"><path
             d="M 0,0 C 0.017,0.002 0.032,0.003 0.049,0.006 0.065,0.009 0.085,0.012 0.104,0.016 0.448,0.069 -0.331,-0.04 0,0"
             id="path3104"
             style="fill:#ffffff;fill-opacity:1;fill-rule:nonzero;stroke:none" /></g><g
           transform="translate(24.1787,51.7793)"
           id="g3106"><path
             d="m 0,0 0,0.718 -1.745,0 0,-0.699 -0.621,0 0,-19.233 3.219,0 L 0.853,0 0,0 z"
             id="path3108"
             style="fill:#ffffff;fill-opacity:1;fill-rule:nonzero;stroke:none" /></g><g
           transform="translate(24.4111,52.0112)"
           id="g3110"><path
             d="m 0,0 0.854,0 0,-19.419 c 0.023,0.004 0.04,0.006 0.037,0.002 0.013,0.025 0.026,0.052 0.03,0.064 0.052,0.166 0.171,0.291 0.322,0.374 l 0,20.665 -0.468,0 0,0.244 -3.568,0 0,-0.244 -0.619,0 0,-21.132 0.581,0 0,19.465 0.621,0 0,0.697 2.21,0 L 0,0 z"
             id="path3112"
             style="fill:#ffffff;fill-opacity:1;fill-rule:nonzero;stroke:none" /></g><g
           transform="translate(26.2139,33.1274)"
           id="g3114"><path
             d="m 0,0 c 0.116,0.167 0.289,0.286 0.525,0.32 l 0,20.25 -0.856,0 0,-20.582 C -0.22,0.015 -0.106,0.015 0,0"
             id="path3116"
             style="fill:#ffffff;fill-opacity:1;fill-rule:nonzero;stroke:none" /></g><g
           transform="translate(23.3516,31.8369)"
           id="g3118"><path
             d="m 0,0 c 0.173,0.23 0.4,0.388 0.649,0.495 l -2.423,0 -1.412,0 0,0.234 0.601,0 0,21.131 -0.699,0 0,-22.644 3.149,0 C -0.225,-0.523 -0.171,-0.227 0,0"
             id="path3120"
             style="fill:#ffffff;fill-opacity:1;fill-rule:nonzero;stroke:none" /></g><g
           transform="translate(39.498,47.144)"
           id="g3122"><path
             d="m 0,0 -0.063,-0.065 0,-4.031 2.189,2.235 L 0,0 z"
             id="path3124"
             style="fill:#ffffff;fill-opacity:1;fill-rule:nonzero;stroke:none" /></g><g
           transform="translate(41.6455,45.5728)"
           id="g3126"><path
             d="M 0,0 0,3.762 -1.982,1.737 0,0 z"
             id="path3128"
             style="fill:#ffffff;fill-opacity:1;fill-rule:nonzero;stroke:none" /></g><g
           transform="translate(39.4346,42.4287)"
           id="g3130"><path
             d="M 0,0 0,-4.147 2.204,-1.968 0,0 z"
             id="path3132"
             style="fill:#ffffff;fill-opacity:1;fill-rule:nonzero;stroke:none" /></g><g
           transform="translate(41.6455,35.9775)"
           id="g3134"><path
             d="M 0,0 0,4.166 -2.199,1.983 0,0 z"
             id="path3136"
             style="fill:#ffffff;fill-opacity:1;fill-rule:nonzero;stroke:none" /></g><g
           transform="translate(41.8779,45.5425)"
           id="g3138"><path
             d="M 0,0 1.902,1.942 0,3.683 0,0 z"
             id="path3140"
             style="fill:#ffffff;fill-opacity:1;fill-rule:nonzero;stroke:none" /></g><g
           transform="translate(43.9336,43.5728)"
           id="g3142"><path
             d="M 0,0 0,3.737 -1.971,1.724 0,0 z"
             id="path3144"
             style="fill:#ffffff;fill-opacity:1;fill-rule:nonzero;stroke:none" /></g><g
           transform="translate(39.5967,55.6479)"
           id="g3146"><path
             d="m 0,0 -0.162,-0.207 0,-3.906 2.133,2.308 L 0,0 z"
             id="path3148"
             style="fill:#ffffff;fill-opacity:1;fill-rule:nonzero;stroke:none" /></g><g
           transform="translate(41.8779,49.541)"
           id="g3150"><path
             d="m 0,0 2.056,-1.881 0,4.01 L 0,0.031 0,0 z"
             id="path3152"
             style="fill:#ffffff;fill-opacity:1;fill-rule:nonzero;stroke:none" /></g><g
           transform="translate(44.0381,38.3169)"
           id="g3154"><path
             d="m 0,0 -2.16,1.93 0,-4.102 L 0,0 z"
             id="path3156"
             style="fill:#ffffff;fill-opacity:1;fill-rule:nonzero;stroke:none" /></g><g
           transform="translate(41.6455,40.7661)"
           id="g3158"><path
             d="M 0,0 0,4.207 -2.196,1.963 0,0 z"
             id="path3160"
             style="fill:#ffffff;fill-opacity:1;fill-rule:nonzero;stroke:none" /></g><g
           transform="translate(41.6455,54.0879)"
           id="g3162"><path
             d="m 0,0 0,3.679 0.232,0 0,-3.587 1.754,1.899 -1.025,1.365 0,4.687 -0.232,0 0,-3.666 -1.193,0 0,3.666 -0.232,0 0,-4.736 L -1.905,1.745 0,0 z m -0.464,4.144 1.193,0 0,-0.477 -0.068,0.091 -1.009,0 -0.116,-0.151 0,0.537 z"
             id="path3164"
             style="fill:#ffffff;fill-opacity:1;fill-rule:nonzero;stroke:none" /></g><g
           transform="translate(43.9287,51.9985)"
           id="g3166"><path
             d="m 0,0 0.005,0.006 0,3.668 L -0.157,3.89 -2.03,1.86 0,0 z"
             id="path3168"
             style="fill:#ffffff;fill-opacity:1;fill-rule:nonzero;stroke:none" /></g><g
           transform="translate(41.8779,32.5239)"
           id="g3170"><path
             d="m 0,0 -0.232,0 0,3.057 -2.211,-2.226 0,-0.946 5.08,-0.156 0,0.823 L 0,2.93 0,0 z"
             id="path3172"
             style="fill:#ffffff;fill-opacity:1;fill-rule:nonzero;stroke:none" /></g><g
           transform="translate(44.4043,42.8735)"
           id="g3174"><path
             d="m 0,0 -2.427,-2.404 2.537,-2.268 0,4.559 L 0,0 z"
             id="path3176"
             style="fill:#ffffff;fill-opacity:1;fill-rule:nonzero;stroke:none" /></g><g
           transform="translate(39.4346,37.6558)"
           id="g3178"><path
             d="M 0,0 0,-3.971 2.083,-1.875 0,0 z"
             id="path3180"
             style="fill:#ffffff;fill-opacity:1;fill-rule:nonzero;stroke:none" /></g><g
           transform="translate(41.5293,49.5469)"
           id="g3182"><path
             d="m 0,0 -1.939,1.775 0.156,0.173 1.899,-1.741 0,3.833 -2.209,-2.394 -0.002,0.002 0,-3.688 0.051,-0.043 L 0,0 z"
             id="path3184"
             style="fill:#ffffff;fill-opacity:1;fill-rule:nonzero;stroke:none" /></g><g
           transform="translate(41.8779,49.9048)"
           id="g3186"><path
             d="M 0,0 1.889,1.927 0,3.654 0,0 z"
             id="path3188"
             style="fill:#ffffff;fill-opacity:1;fill-rule:nonzero;stroke:none" /></g><g
           transform="translate(41.8779,35.8149)"
           id="g3190"><path
             d="m 0,0 0,-0.046 2.637,-2.379 0,4.5 L 2.333,2.348 0,0 z"
             id="path3192"
             style="fill:#ffffff;fill-opacity:1;fill-rule:nonzero;stroke:none" /></g><g
           transform="translate(41.8779,40.6997)"
           id="g3194"><path
             d="M 0,0 2.361,2.337 2.185,2.514 2.155,2.478 0,4.36 0,0 z"
             id="path3196"
             style="fill:#ffffff;fill-opacity:1;fill-rule:nonzero;stroke:none" /></g><g
           transform="translate(52.3975,49.8623)"
           id="g3198"><path
             d="m 0,0 0,0.133 -1.382,1.293 -4.415,0 L -7.183,0 0,0 z"
             id="path3200"
             style="fill:#ffffff;fill-opacity:1;fill-rule:nonzero;stroke:none" /></g><g
           transform="translate(45.084,49.8501)"
           id="g3202"><path
             d="m 0,0 0,-16.589 0.005,-1.879 7.308,0.005 L 7.313,0 0,0 z m 1.271,-17.817 -0.535,0 0,0.537 0.535,0 0,-0.537 z m 0,0.804 -0.535,0 0,0.535 0.535,0 0,-0.535 z m 0,0.801 -0.535,0 0,0.534 0.535,0 0,-0.534 z m 0,0.8 -0.535,0 0,0.537 0.535,0 0,-0.537 z m 0,0.804 -0.535,0 0,0.533 0.535,0 0,-0.533 z m 0,0.8 -0.535,0 0,0.535 0.535,0 0,-0.535 z m 0,0.802 -0.535,0 0,0.538 0.535,0 0,-0.538 z m 0,0.801 -0.535,0 0,0.536 0.535,0 0,-0.536 z m 0,0.802 -0.535,0 0,0.535 0.535,0 0,-0.535 z m 0,0.801 -0.535,0 0,0.538 0.535,0 0,-0.538 z m 0,0.804 -0.535,0 0,0.532 0.535,0 0,-0.532 z m 0,0.802 -0.535,0 0,0.533 0.535,0 0,-0.533 z m 0,0.8 -0.535,0 0,0.536 0.535,0 0,-0.536 z m 0,0.803 -0.535,0 0,0.533 0.535,0 0,-0.533 z m 0,0.8 -0.535,0 0,0.534 0.535,0 0,-0.534 z m 0,0.802 -0.535,0 0,0.536 0.535,0 0,-0.536 z m 0,0.801 -0.535,0 0,0.538 0.535,0 0,-0.538 z m 0,0.802 -0.535,0 0,0.536 0.535,0 0,-0.536 z m 0,0.804 -0.535,0 0,0.533 0.535,0 0,-0.533 z m 0,0.8 -0.535,0 0,0.535 0.535,0 0,-0.535 z m 0,0.802 -0.535,0 0,0.536 0.535,0 0,-0.536 z m 0,0.801 -0.535,0 0,0.533 0.535,0 0,-0.533 z m 0.899,-16.836 -0.534,0 0,0.537 0.534,0 0,-0.537 z m 0,0.804 -0.534,0 0,0.535 0.534,0 0,-0.535 z m 0,0.801 -0.534,0 0,0.534 0.534,0 0,-0.534 z m 0,0.8 -0.534,0 0,0.537 0.534,0 0,-0.537 z m 0,0.804 -0.534,0 0,0.533 0.534,0 0,-0.533 z m 0,0.8 -0.534,0 0,0.535 0.534,0 0,-0.535 z m 0,0.802 -0.534,0 0,0.538 0.534,0 0,-0.538 z m 0,0.801 -0.534,0 0,0.536 0.534,0 0,-0.536 z m 0,0.802 -0.534,0 0,0.535 0.534,0 0,-0.535 z m 0,0.801 -0.534,0 0,0.538 0.534,0 0,-0.538 z m 0,0.804 -0.534,0 0,0.532 0.534,0 0,-0.532 z m 0,0.802 -0.534,0 0,0.533 0.534,0 0,-0.533 z m 0,0.8 -0.534,0 0,0.536 0.534,0 0,-0.536 z m 0,0.803 -0.534,0 0,0.533 0.534,0 0,-0.533 z m 0,0.8 -0.534,0 0,0.534 0.534,0 0,-0.534 z m 0,0.802 -0.534,0 0,0.536 0.534,0 0,-0.536 z m 0,0.801 -0.534,0 0,0.538 0.534,0 0,-0.538 z m 0,0.802 -0.534,0 0,0.536 0.534,0 0,-0.536 z m 0,0.804 -0.534,0 0,0.533 0.534,0 0,-0.533 z m 0,0.8 -0.534,0 0,0.535 0.534,0 0,-0.535 z m 0,0.802 -0.534,0 0,0.536 0.534,0 0,-0.536 z m 0,0.801 -0.534,0 0,0.533 0.534,0 0,-0.533 z m 0.897,-16.836 -0.534,0 0,0.537 0.534,0 0,-0.537 z m 0,0.804 -0.534,0 0,0.535 0.534,0 0,-0.535 z m 0,0.801 -0.534,0 0,0.534 0.534,0 0,-0.534 z m 0,0.8 -0.534,0 0,0.537 0.534,0 0,-0.537 z m 0,0.804 -0.534,0 0,0.533 0.534,0 0,-0.533 z m 0,0.8 -0.534,0 0,0.535 0.534,0 0,-0.535 z m 0,0.802 -0.534,0 0,0.538 0.534,0 0,-0.538 z m 0,0.801 -0.534,0 0,0.536 0.534,0 0,-0.536 z m 0,0.802 -0.534,0 0,0.535 0.534,0 0,-0.535 z m 0,0.801 -0.534,0 0,0.538 0.534,0 0,-0.538 z m 0,0.804 -0.534,0 0,0.532 0.534,0 0,-0.532 z m 0,0.802 -0.534,0 0,0.533 0.534,0 0,-0.533 z m 0,0.8 -0.534,0 0,0.536 0.534,0 0,-0.536 z m 0,0.803 -0.534,0 0,0.533 0.534,0 0,-0.533 z m 0,0.8 -0.534,0 0,0.534 0.534,0 0,-0.534 z m 0,0.802 -0.534,0 0,0.536 0.534,0 0,-0.536 z m 0,0.801 -0.534,0 0,0.538 0.534,0 0,-0.538 z m 0,0.802 -0.534,0 0,0.536 0.534,0 0,-0.536 z m 0,0.804 -0.534,0 0,0.533 0.534,0 0,-0.533 z m 0,0.8 -0.534,0 0,0.535 0.534,0 0,-0.535 z m 0,0.802 -0.534,0 0,0.536 0.534,0 0,-0.536 z m 0,0.801 -0.534,0 0,0.533 0.534,0 0,-0.533 z m 0.902,-16.836 -0.535,0 0,0.537 0.535,0 0,-0.537 z m 0,0.804 -0.535,0 0,0.535 0.535,0 0,-0.535 z m 0,0.801 -0.535,0 0,0.534 0.535,0 0,-0.534 z m 0,0.8 -0.535,0 0,0.537 0.535,0 0,-0.537 z m 0,0.804 -0.535,0 0,0.533 0.535,0 0,-0.533 z m 0,0.8 -0.535,0 0,0.535 0.535,0 0,-0.535 z m 0,0.802 -0.535,0 0,0.538 0.535,0 0,-0.538 z m 0,0.801 -0.535,0 0,0.536 0.535,0 0,-0.536 z m 0,0.802 -0.535,0 0,0.535 0.535,0 0,-0.535 z m 0,0.801 -0.535,0 0,0.538 0.535,0 0,-0.538 z m 0,0.804 -0.535,0 0,0.532 0.535,0 0,-0.532 z m 0,0.802 -0.535,0 0,0.533 0.535,0 0,-0.533 z m 0,0.8 -0.535,0 0,0.536 0.535,0 0,-0.536 z m 0,0.803 -0.535,0 0,0.533 0.535,0 0,-0.533 z m 0,0.8 -0.535,0 0,0.534 0.535,0 0,-0.534 z m 0,0.802 -0.535,0 0,0.536 0.535,0 0,-0.536 z m 0,0.801 -0.535,0 0,0.538 0.535,0 0,-0.538 z m 0,0.802 -0.535,0 0,0.536 0.535,0 0,-0.536 z m 0,0.804 -0.535,0 0,0.533 0.535,0 0,-0.533 z m 0,0.8 -0.535,0 0,0.535 0.535,0 0,-0.535 z m 0,0.802 -0.535,0 0,0.536 0.535,0 0,-0.536 z m 0,0.801 -0.535,0 0,0.533 0.535,0 0,-0.533 z m 0.899,-16.836 -0.536,0 0,0.537 0.536,0 0,-0.537 z m 0,0.804 -0.536,0 0,0.535 0.536,0 0,-0.535 z m 0,0.801 -0.536,0 0,0.534 0.536,0 0,-0.534 z m 0,0.8 -0.536,0 0,0.537 0.536,0 0,-0.537 z m 0,0.804 -0.536,0 0,0.533 0.536,0 0,-0.533 z m 0,0.8 -0.536,0 0,0.535 0.536,0 0,-0.535 z m 0,0.802 -0.536,0 0,0.538 0.536,0 0,-0.538 z m 0,0.801 -0.536,0 0,0.536 0.536,0 0,-0.536 z m 0,0.802 -0.536,0 0,0.535 0.536,0 0,-0.535 z m 0,0.801 -0.536,0 0,0.538 0.536,0 0,-0.538 z m 0,0.804 -0.536,0 0,0.532 0.536,0 0,-0.532 z m 0,0.802 -0.536,0 0,0.533 0.536,0 0,-0.533 z m 0,0.8 -0.536,0 0,0.536 0.536,0 0,-0.536 z m 0,0.803 -0.536,0 0,0.533 0.536,0 0,-0.533 z m 0,0.8 -0.536,0 0,0.534 0.536,0 0,-0.534 z m 0,0.802 -0.536,0 0,0.536 0.536,0 0,-0.536 z m 0,0.801 -0.536,0 0,0.538 0.536,0 0,-0.538 z m 0,0.802 -0.536,0 0,0.536 0.536,0 0,-0.536 z m 0,0.804 -0.536,0 0,0.533 0.536,0 0,-0.533 z m 0,0.8 -0.536,0 0,0.535 0.536,0 0,-0.535 z m 0,0.802 -0.536,0 0,0.536 0.536,0 0,-0.536 z m 0,0.801 -0.536,0 0,0.533 0.536,0 0,-0.533 z m 0.899,-16.836 -0.534,0 0,0.537 0.534,0 0,-0.537 z m 0,0.804 -0.534,0 0,0.535 0.534,0 0,-0.535 z m 0,0.801 -0.534,0 0,0.534 0.534,0 0,-0.534 z m 0,0.8 -0.534,0 0,0.537 0.534,0 0,-0.537 z m 0,0.804 -0.534,0 0,0.533 0.534,0 0,-0.533 z m 0,0.8 -0.534,0 0,0.535 0.534,0 0,-0.535 z m 0,0.802 -0.534,0 0,0.538 0.534,0 0,-0.538 z m 0,0.801 -0.534,0 0,0.536 0.534,0 0,-0.536 z m 0,0.802 -0.534,0 0,0.535 0.534,0 0,-0.535 z m 0,0.801 -0.534,0 0,0.538 0.534,0 0,-0.538 z m 0,0.804 -0.534,0 0,0.532 0.534,0 0,-0.532 z m 0,0.802 -0.534,0 0,0.533 0.534,0 0,-0.533 z m 0,0.8 -0.534,0 0,0.536 0.534,0 0,-0.536 z m 0,0.803 -0.534,0 0,0.533 0.534,0 0,-0.533 z m 0,0.8 -0.534,0 0,0.534 0.534,0 0,-0.534 z m 0,0.802 -0.534,0 0,0.536 0.534,0 0,-0.536 z m 0,0.801 -0.534,0 0,0.538 0.534,0 0,-0.538 z m 0,0.802 -0.534,0 0,0.536 0.534,0 0,-0.536 z m 0,0.804 -0.534,0 0,0.533 0.534,0 0,-0.533 z m 0,0.8 -0.534,0 0,0.535 0.534,0 0,-0.535 z m 0,0.802 -0.534,0 0,0.536 0.534,0 0,-0.536 z m 0,0.801 -0.534,0 0,0.533 0.534,0 0,-0.533 z m 0.9,-16.836 -0.538,0 0,0.537 0.538,0 0,-0.537 z m 0,0.804 -0.538,0 0,0.535 0.538,0 0,-0.535 z m 0,0.801 -0.538,0 0,0.534 0.538,0 0,-0.534 z m 0,0.8 -0.538,0 0,0.537 0.538,0 0,-0.537 z m 0,0.804 -0.538,0 0,0.533 0.538,0 0,-0.533 z m 0,0.8 -0.538,0 0,0.535 0.538,0 0,-0.535 z m 0,0.802 -0.538,0 0,0.538 0.538,0 0,-0.538 z m 0,0.801 -0.538,0 0,0.536 0.538,0 0,-0.536 z m 0,0.802 -0.538,0 0,0.535 0.538,0 0,-0.535 z m 0,0.801 -0.538,0 0,0.538 0.538,0 0,-0.538 z m 0,0.804 -0.538,0 0,0.532 0.538,0 0,-0.532 z m 0,0.802 -0.538,0 0,0.533 0.538,0 0,-0.533 z m 0,0.8 -0.538,0 0,0.536 0.538,0 0,-0.536 z m 0,0.803 -0.538,0 0,0.533 0.538,0 0,-0.533 z m 0,0.8 -0.538,0 0,0.534 0.538,0 0,-0.534 z m 0,0.802 -0.538,0 0,0.536 0.538,0 0,-0.536 z m 0,0.801 -0.538,0 0,0.538 0.538,0 0,-0.538 z m 0,0.802 -0.538,0 0,0.536 0.538,0 0,-0.536 z m 0,0.804 -0.538,0 0,0.533 0.538,0 0,-0.533 z m 0,0.8 -0.538,0 0,0.535 0.538,0 0,-0.535 z m 0,0.802 -0.538,0 0,0.536 0.538,0 0,-0.536 z m 0,0.801 -0.538,0 0,0.533 0.538,0 0,-0.533 z"
             id="path3204"
             style="fill:#ffffff;fill-opacity:1;fill-rule:nonzero;stroke:none" /></g><path
           d="m 56.158,46.952 -0.514,0 0,-7.33 0.514,0 0,7.33 z"
           id="path3206"
           style="fill:#ffffff;fill-opacity:1;fill-rule:nonzero;stroke:none" /><path
           d="m 56.274,47.183 0.447,0 0,7.369 -0.447,0 0,-7.369 z"
           id="path3208"
           style="fill:#ffffff;fill-opacity:1;fill-rule:nonzero;stroke:none" /><path
           d="m 56.722,46.952 -0.447,0 0,-7.33 0.447,0 0,7.33 z"
           id="path3210"
           style="fill:#ffffff;fill-opacity:1;fill-rule:nonzero;stroke:none" /><path
           d="m 55.412,46.952 -0.417,0 0,-7.33 0.417,0 0,7.33 z"
           id="path3212"
           style="fill:#ffffff;fill-opacity:1;fill-rule:nonzero;stroke:none" /><path
           d="m 56.952,47.183 0.409,0 0,7.369 -0.409,0 0,-7.369 z"
           id="path3214"
           style="fill:#ffffff;fill-opacity:1;fill-rule:nonzero;stroke:none" /><g
           transform="translate(56.9541,64.627)"
           id="g3216"><path
             d="m 0,0 0.938,0 0,0.002 L 1.374,0 0.571,1.344 0,1.344 0,0 z"
             id="path3218"
             style="fill:#ffffff;fill-opacity:1;fill-rule:nonzero;stroke:none" /></g><path
           d="m 56.158,54.552 -0.514,0 0,-7.369 0.514,0 0,7.369 z"
           id="path3220"
           style="fill:#ffffff;fill-opacity:1;fill-rule:nonzero;stroke:none" /><path
           d="m 55.412,64.395 -0.417,0 0,-9.612 0.417,0 0,9.612 z"
           id="path3222"
           style="fill:#ffffff;fill-opacity:1;fill-rule:nonzero;stroke:none" /><path
           d="m 56.952,39.622 0.409,0 0,7.33 -0.409,0 0,-7.33 z"
           id="path3224"
           style="fill:#ffffff;fill-opacity:1;fill-rule:nonzero;stroke:none" /><path
           d="m 55.412,54.552 -0.417,0 0,-7.369 0.417,0 0,7.369 z"
           id="path3226"
           style="fill:#ffffff;fill-opacity:1;fill-rule:nonzero;stroke:none" /><path
           d="m 56.274,54.783 0.447,0 0,9.612 -0.447,0 0,-9.612 z"
           id="path3228"
           style="fill:#ffffff;fill-opacity:1;fill-rule:nonzero;stroke:none" /><path
           d="m 56.274,64.627 0.447,0 0,1.344 -0.447,0 0,-1.344 z"
           id="path3230"
           style="fill:#ffffff;fill-opacity:1;fill-rule:nonzero;stroke:none" /><g
           transform="translate(54.5205,64.627)"
           id="g3232"><path
             d="m 0,0 0.892,0 0,1.344 -0.447,0 L -0.505,0.005 0,0.005 0,0 z"
             id="path3234"
             style="fill:#ffffff;fill-opacity:1;fill-rule:nonzero;stroke:none" /></g><path
           d="m 57.361,39.39 -0.407,0 0,-8.338 0.407,0 0,8.338 z"
           id="path3236"
           style="fill:#ffffff;fill-opacity:1;fill-rule:nonzero;stroke:none" /><g
           transform="translate(59.0566,54.9395)"
           id="g3238"><path
             d="m 0,0 0,4.186 -0.271,0 0,3.334 -0.271,0 0,1.477 -0.622,0 0,0.459 -0.414,0 0,-33.343 1.849,0 L 0.271,0 0,0 z"
             id="path3240"
             style="fill:#ffffff;fill-opacity:1;fill-rule:nonzero;stroke:none" /></g><g
           transform="translate(54.8799,64.395)"
           id="g3242"><path
             d="m 0,0 -0.359,0 0,-0.461 -0.62,0 0,-1.473 -0.271,0 0,-3.336 -0.274,0 0,-4.186 -0.272,0 0,-23.886 1.796,0 L 0,0 z"
             id="path3244"
             style="fill:#ffffff;fill-opacity:1;fill-rule:nonzero;stroke:none" /></g><path
           d="m 56.952,54.783 0.409,0 0,9.612 -0.409,0 0,-9.612 z"
           id="path3246"
           style="fill:#ffffff;fill-opacity:1;fill-rule:nonzero;stroke:none" /><path
           d="m 56.722,39.39 -0.447,0 0,-8.338 0.447,0 0,8.338 z"
           id="path3248"
           style="fill:#ffffff;fill-opacity:1;fill-rule:nonzero;stroke:none" /><path
           d="m 55.645,64.627 0.514,0 0,1.344 -0.514,0 0,-1.344 z"
           id="path3250"
           style="fill:#ffffff;fill-opacity:1;fill-rule:nonzero;stroke:none" /><path
           d="m 56.158,64.395 -0.514,0 0,-9.612 0.514,0 0,9.612 z"
           id="path3252"
           style="fill:#ffffff;fill-opacity:1;fill-rule:nonzero;stroke:none" /><path
           d="m 55.412,39.39 -0.417,0 0,-8.338 0.417,0 0,8.338 z"
           id="path3254"
           style="fill:#ffffff;fill-opacity:1;fill-rule:nonzero;stroke:none" /><path
           d="m 56.158,39.39 -0.514,0 0,-8.338 0.514,0 0,8.338 z"
           id="path3256"
           style="fill:#ffffff;fill-opacity:1;fill-rule:nonzero;stroke:none" /><path
           d="m 46.086,27.891 13.339,0 0,0.292 -13.339,0 0,-0.292 z"
           id="path3258"
           style="fill:#ffffff;fill-opacity:1;fill-rule:nonzero;stroke:none" /><path
           d="m 46.086,28.36 13.339,0 0,0.317 -13.339,0 0,-0.317 z"
           id="path3260"
           style="fill:#ffffff;fill-opacity:1;fill-rule:nonzero;stroke:none" /><path
           d="m 46.086,27.397 13.339,0 0,0.321 -13.339,0 0,-0.321 z"
           id="path3262"
           style="fill:#ffffff;fill-opacity:1;fill-rule:nonzero;stroke:none" /><path
           d="m 46.086,24.694 13.339,0 0,2.53 -13.339,0 0,-2.53 z"
           id="path3264"
           style="fill:#ffffff;fill-opacity:1;fill-rule:nonzero;stroke:none" /><path
           d="m 57.604,30.859 -10.003,0 0,-0.668 10.003,0 0,0.668 z"
           id="path3266"
           style="fill:#ffffff;fill-opacity:1;fill-rule:nonzero;stroke:none" /><g
           transform="translate(59.4248,28.8525)"
           id="g3268"><path
             d="m 0,0 0,1.113 -1.561,0 0,-0.007 -10.332,0 0,0.007 -1.446,0 0,-1.113 L 0,0 z"
             id="path3270"
             style="fill:#ffffff;fill-opacity:1;fill-rule:nonzero;stroke:none" /></g><g
           transform="translate(39.0215,32.5981)"
           id="g3272"><path
             d="m 0,0 0,-1.845 1.808,-0.006 0.061,-3.486 -0.061,-2.498 5.295,-0.069 0,7.947 L 0,0 z m 6.289,-4.746 -0.466,0 0,0.468 0.466,0 0,-0.468 z m 0,0.989 -0.466,0 0,0.468 0.466,0 0,-0.468 z m 0,0.989 -0.466,0 0,0.466 0.466,0 0,-0.466 z m 0,0.991 -0.466,0 0,0.465 0.466,0 0,-0.465 z"
             id="path3274"
             style="fill:#ffffff;fill-opacity:1;fill-rule:nonzero;stroke:none" /></g><path
           d="m 36.179,46.161 -0.725,0 0,-0.401 0.725,0 0,0.401 z"
           id="path3276"
           style="fill:#ffffff;fill-opacity:1;fill-rule:nonzero;stroke:none" /><path
           d="m 36.179,45.526 -0.725,0 0,-0.401 0.725,0 0,0.401 z"
           id="path3278"
           style="fill:#ffffff;fill-opacity:1;fill-rule:nonzero;stroke:none" /><path
           d="m 35.454,46.622 0.725,0 0,0.173 -0.725,0 0,-0.173 z"
           id="path3280"
           style="fill:#ffffff;fill-opacity:1;fill-rule:nonzero;stroke:none" /><path
           d="m 36.179,44.893 -0.725,0 0,-0.401 0.725,0 0,0.401 z"
           id="path3282"
           style="fill:#ffffff;fill-opacity:1;fill-rule:nonzero;stroke:none" /><g
           transform="translate(35.7607,47.4277)"
           id="g3284"><path
             d="M 0,0 0.418,-0.186 0.418,0 0,0 z"
             id="path3286"
             style="fill:#ffffff;fill-opacity:1;fill-rule:nonzero;stroke:none" /></g><g
           transform="translate(35.4541,47.0283)"
           id="g3288"><path
             d="M 0,0 0.618,0 0,0.281 0,0 z"
             id="path3290"
             style="fill:#ffffff;fill-opacity:1;fill-rule:nonzero;stroke:none" /></g><path
           d="m 36.179,42.288 -0.725,0 0,-0.334 0.725,0 0,0.334 z"
           id="path3292"
           style="fill:#ffffff;fill-opacity:1;fill-rule:nonzero;stroke:none" /><g
           transform="translate(36.1787,42.8706)"
           id="g3294"><path
             d="m 0,0 -0.256,0.119 -0.469,0 0,-0.402 0.725,0 L 0,0 z"
             id="path3296"
             style="fill:#ffffff;fill-opacity:1;fill-rule:nonzero;stroke:none" /></g><g
           transform="translate(36.1787,43.624)"
           id="g3298"><path
             d="m 0,0 -0.725,0 0,-0.159 0.52,-0.243 0.205,0 L 0,0 z"
             id="path3300"
             style="fill:#ffffff;fill-opacity:1;fill-rule:nonzero;stroke:none" /></g><path
           d="m 36.179,44.259 -0.725,0 0,-0.403 0.725,0 0,0.403 z"
           id="path3302"
           style="fill:#ffffff;fill-opacity:1;fill-rule:nonzero;stroke:none" /><path
           d="m 35.454,48.929 0.725,0 0,0.25 -0.725,0 0,-0.25 z"
           id="path3304"
           style="fill:#ffffff;fill-opacity:1;fill-rule:nonzero;stroke:none" /><g
           transform="translate(35.2207,38.6938)"
           id="g3306"><path
             d="M 0,0 -0.926,-0.593 0,-0.593 0,0 z"
             id="path3308"
             style="fill:#ffffff;fill-opacity:1;fill-rule:nonzero;stroke:none" /></g><g
           transform="translate(31.1484,38.1011)"
           id="g3310"><path
             d="M 0,0 1,0 0,0.46 0,0 z"
             id="path3312"
             style="fill:#ffffff;fill-opacity:1;fill-rule:nonzero;stroke:none" /></g><g
           transform="translate(35.2207,42.2881)"
           id="g3314"><path
             d="M 0,0 -1.288,0 -1.306,-0.011 -1.313,0 l -2.759,0 0,-3.471 1.557,-0.716 1.158,0 L 0,-3.318 0,0 z"
             id="path3316"
             style="fill:#ffffff;fill-opacity:1;fill-rule:nonzero;stroke:none" /></g><g
           transform="translate(31.291,33.312)"
           id="g3318"><path
             d="m 0,0 c 0.193,-0.103 0.353,-0.218 0.521,-0.309 l 0.433,0 -1.097,0.49 0,-0.112 C -0.096,0.049 -0.047,0.025 0,0"
             id="path3320"
             style="fill:#ffffff;fill-opacity:1;fill-rule:nonzero;stroke:none" /></g><g
           transform="translate(31.1484,42.52)"
           id="g3322"><path
             d="M 0,0 1.049,0 0,0.47 0,0 z"
             id="path3324"
             style="fill:#ffffff;fill-opacity:1;fill-rule:nonzero;stroke:none" /></g><path
           d="m 36.179,48.063 -0.725,0 0,-0.401 0.725,0 0,0.401 z"
           id="path3326"
           style="fill:#ffffff;fill-opacity:1;fill-rule:nonzero;stroke:none" /><path
           d="m 36.179,48.696 -0.725,0 0,-0.4 0.725,0 0,0.4 z"
           id="path3328"
           style="fill:#ffffff;fill-opacity:1;fill-rule:nonzero;stroke:none" /><path
           d="m 36.179,41.722 -0.725,0 0,-0.402 0.725,0 0,0.402 z"
           id="path3330"
           style="fill:#ffffff;fill-opacity:1;fill-rule:nonzero;stroke:none" /><g
           transform="translate(35.2207,33.6172)"
           id="g3332"><path
             d="M 0,0 -0.964,-0.615 0,-0.615 0,0 z"
             id="path3334"
             style="fill:#ffffff;fill-opacity:1;fill-rule:nonzero;stroke:none" /></g><g
           transform="translate(36.1787,49.7759)"
           id="g3336"><path
             d="m 0,0 -0.422,0.188 -0.303,0 0,-0.401 0.725,0 L 0,0 z"
             id="path3338"
             style="fill:#ffffff;fill-opacity:1;fill-rule:nonzero;stroke:none" /></g><g
           transform="translate(35.2207,37.8677)"
           id="g3340"><path
             d="M 0,0 -1.288,0 -1.306,-0.01 -1.313,0 -2.53,0 -2.537,-0.014 -2.566,0 l -1.506,0 0,-4.121 1.663,-0.745 1.015,0 L 0,-3.972 0,0 z"
             id="path3342"
             style="fill:#ffffff;fill-opacity:1;fill-rule:nonzero;stroke:none" /></g><path
           d="m 36.179,41.086 -0.725,0 0,-0.4 0.725,0 0,0.4 z"
           id="path3344"
           style="fill:#ffffff;fill-opacity:1;fill-rule:nonzero;stroke:none" /><g
           transform="translate(36.4131,38.1011)"
           id="g3346"><path
             d="M 0,0 0.47,0 0,0.226 0,0 z"
             id="path3348"
             style="fill:#ffffff;fill-opacity:1;fill-rule:nonzero;stroke:none" /></g><g
           transform="translate(36.4131,33.002)"
           id="g3350"><path
             d="M 0,0 0.529,0 0,0.252 0,0 z"
             id="path3352"
             style="fill:#ffffff;fill-opacity:1;fill-rule:nonzero;stroke:none" /></g><g
           transform="translate(36.4131,42.52)"
           id="g3354"><path
             d="M 0,0 0.514,0 0,0.241 0,0 z"
             id="path3356"
             style="fill:#ffffff;fill-opacity:1;fill-rule:nonzero;stroke:none" /></g><g
           transform="translate(35.4541,33.002)"
           id="g3358"><path
             d="m 0,0 0.725,0 0,0.364 L 0.492,0.475 0,0.475 0,0 z"
             id="path3360"
             style="fill:#ffffff;fill-opacity:1;fill-rule:nonzero;stroke:none" /></g><g
           transform="translate(36.1787,34.1099)"
           id="g3362"><path
             d="m 0,0 -0.725,0 0,-0.141 L -0.178,-0.4 0,-0.4 0,0 z"
             id="path3364"
             style="fill:#ffffff;fill-opacity:1;fill-rule:nonzero;stroke:none" /></g><g
           transform="translate(35.4541,33.7095)"
           id="g3366"><path
             d="M 0,0 0.006,0 0,0.004 0,0 z"
             id="path3368"
             style="fill:#ffffff;fill-opacity:1;fill-rule:nonzero;stroke:none" /></g><g
           transform="translate(36.4131,46.6216)"
           id="g3370"><path
             d="M 0,0 0.552,0 0,0.251 0,0 z"
             id="path3372"
             style="fill:#ffffff;fill-opacity:1;fill-rule:nonzero;stroke:none" /></g><g
           transform="translate(36.4131,49.1792)"
           id="g3374"><path
             d="m 0,0 0,-2.042 1.156,-0.516 0.033,0 0.264,0 0,0.117 L 1.453,0 0,0 z"
             id="path3376"
             style="fill:#ffffff;fill-opacity:1;fill-rule:nonzero;stroke:none" /></g><g
           transform="translate(36.4131,49.4131)"
           id="g3378"><path
             d="M 0,0 0.571,0 0,0.258 0,0 z"
             id="path3380"
             style="fill:#ffffff;fill-opacity:1;fill-rule:nonzero;stroke:none" /></g><g
           transform="translate(30.1885,51.1875)"
           id="g3382"><path
             d="m 0,0 0,-0.988 0.102,0 0.296,0.189 0.329,-0.15 0,0.571 0.233,0 0,-0.675 1.593,-0.721 1.122,0 1.357,0.869 0,1.55 0.234,0 0,-1.474 0.353,-0.159 0.371,0 0,1.629 0.235,0 0,-1.903 1.139,-0.512 0.314,0 0,1.018 -0.351,0 0,0.697 0.583,0 0,0.697 -5.118,0 0,-0.725 0.348,0 0,-0.728 -1.452,0 0,0.437 -1.628,0 L 0.06,0 0,0 z"
             id="path3384"
             style="fill:#ffffff;fill-opacity:1;fill-rule:nonzero;stroke:none" /></g><path
           d="m 36.179,37.868 -0.725,0 0,-0.354 0.725,0 0,0.354 z"
           id="path3386"
           style="fill:#ffffff;fill-opacity:1;fill-rule:nonzero;stroke:none" /><g
           transform="translate(36.1787,39.1821)"
           id="g3388"><path
             d="m 0,0 -0.725,0 0,-0.138 0.546,-0.261 0.179,0 L 0,0 z"
             id="path3390"
             style="fill:#ffffff;fill-opacity:1;fill-rule:nonzero;stroke:none" /></g><g
           transform="translate(36.1787,38.438)"
           id="g3392"><path
             d="m 0,0 -0.233,0.115 -0.492,0 0,-0.405 L 0,-0.29 0,0 z"
             id="path3394"
             style="fill:#ffffff;fill-opacity:1;fill-rule:nonzero;stroke:none" /></g><g
           transform="translate(35.2207,43.1138)"
           id="g3396"><path
             d="M 0,0 -0.926,-0.594 0,-0.594 0,0 z"
             id="path3398"
             style="fill:#ffffff;fill-opacity:1;fill-rule:nonzero;stroke:none" /></g><path
           d="m 36.179,34.744 -0.725,0 0,-0.4 0.725,0 0,0.4 z"
           id="path3400"
           style="fill:#ffffff;fill-opacity:1;fill-rule:nonzero;stroke:none" /><path
           d="m 36.179,40.454 -0.725,0 0,-0.402 0.725,0 0,0.402 z"
           id="path3402"
           style="fill:#ffffff;fill-opacity:1;fill-rule:nonzero;stroke:none" /><path
           d="m 36.179,39.82 -0.725,0 0,-0.401 0.725,0 0,0.401 z"
           id="path3404"
           style="fill:#ffffff;fill-opacity:1;fill-rule:nonzero;stroke:none" /><path
           d="m 36.179,35.379 -0.725,0 0,-0.402 0.725,0 0,0.402 z"
           id="path3406"
           style="fill:#ffffff;fill-opacity:1;fill-rule:nonzero;stroke:none" /><path
           d="m 36.179,36.013 -0.725,0 0,-0.401 0.725,0 0,0.401 z"
           id="path3408"
           style="fill:#ffffff;fill-opacity:1;fill-rule:nonzero;stroke:none" /><path
           d="m 36.179,36.647 -0.725,0 0,-0.402 0.725,0 0,0.402 z"
           id="path3410"
           style="fill:#ffffff;fill-opacity:1;fill-rule:nonzero;stroke:none" /><path
           d="m 36.179,37.281 -0.725,0 0,-0.401 0.725,0 0,0.401 z"
           id="path3412"
           style="fill:#ffffff;fill-opacity:1;fill-rule:nonzero;stroke:none" /><g
           transform="translate(35.4541,38.7827)"
           id="g3414"><path
             d="M 0,0 0.006,0 0,0.003 0,0 z"
             id="path3416"
             style="fill:#ffffff;fill-opacity:1;fill-rule:nonzero;stroke:none" /></g><path
           d="m 30.915,48.696 -0.727,0 0,-0.4 0.727,0 0,0.4 z"
           id="path3418"
           style="fill:#ffffff;fill-opacity:1;fill-rule:nonzero;stroke:none" /><path
           d="m 30.915,46.161 -0.727,0 0,-0.401 0.727,0 0,0.401 z"
           id="path3420"
           style="fill:#ffffff;fill-opacity:1;fill-rule:nonzero;stroke:none" /><path
           d="m 30.915,45.526 -0.727,0 0,-0.401 0.727,0 0,0.401 z"
           id="path3422"
           style="fill:#ffffff;fill-opacity:1;fill-rule:nonzero;stroke:none" /><g
           transform="translate(30.1885,47.0659)"
           id="g3424"><path
             d="m 0,0 0,-0.038 0.727,0 0,0.163 L 0.417,0.267 0,0 z"
             id="path3426"
             style="fill:#ffffff;fill-opacity:1;fill-rule:nonzero;stroke:none" /></g><path
           d="m 30.915,48.063 -0.727,0 0,-0.401 0.727,0 0,0.401 z"
           id="path3428"
           style="fill:#ffffff;fill-opacity:1;fill-rule:nonzero;stroke:none" /><path
           d="m 30.188,46.622 0.728,0 0,0.173 -0.728,0 0,-0.173 z"
           id="path3430"
           style="fill:#ffffff;fill-opacity:1;fill-rule:nonzero;stroke:none" /><g
           transform="translate(30.5879,43.2217)"
           id="g3432"><path
             d="M 0,0 0.039,0 0.018,0.013 0,0 z"
             id="path3434"
             style="fill:#ffffff;fill-opacity:1;fill-rule:nonzero;stroke:none" /></g><g
           transform="translate(30.915,42.9897)"
           id="g3436"><path
             d="m 0,0 -0.688,0 -0.039,-0.026 0,-0.376 0.727,0 L 0,0 z"
             id="path3438"
             style="fill:#ffffff;fill-opacity:1;fill-rule:nonzero;stroke:none" /></g><g
           transform="translate(30.915,43.624)"
           id="g3440"><path
             d="m 0,0 -0.727,0 0,-0.382 0.399,0.254 L 0,-0.276 0,0 z"
             id="path3442"
             style="fill:#ffffff;fill-opacity:1;fill-rule:nonzero;stroke:none" /></g><path
           d="m 30.915,44.259 -0.727,0 0,-0.403 0.727,0 0,0.403 z"
           id="path3444"
           style="fill:#ffffff;fill-opacity:1;fill-rule:nonzero;stroke:none" /><path
           d="m 30.915,44.893 -0.727,0 0,-0.401 0.727,0 0,0.401 z"
           id="path3446"
           style="fill:#ffffff;fill-opacity:1;fill-rule:nonzero;stroke:none" /><g
           transform="translate(29.4951,49.4131)"
           id="g3448"><path
             d="m 0,0 0.461,0 0,0.294 L 0,0 z"
             id="path3450"
             style="fill:#ffffff;fill-opacity:1;fill-rule:nonzero;stroke:none" /></g><g
           transform="translate(29.4951,42.52)"
           id="g3452"><path
             d="m 0,0 0.461,0 0,0.296 L 0,0 z"
             id="path3454"
             style="fill:#ffffff;fill-opacity:1;fill-rule:nonzero;stroke:none" /></g><path
           d="m 30.188,48.929 0.728,0 0,0.25 -0.728,0 0,-0.25 z"
           id="path3456"
           style="fill:#ffffff;fill-opacity:1;fill-rule:nonzero;stroke:none" /><g
           transform="translate(29.4951,38.1011)"
           id="g3458"><path
             d="m 0,0 0.461,0 0,0.296 L 0,0 z"
             id="path3460"
             style="fill:#ffffff;fill-opacity:1;fill-rule:nonzero;stroke:none" /></g><path
           d="m 30.915,42.288 -0.727,0 0,-0.334 0.727,0 0,0.334 z"
           id="path3462"
           style="fill:#ffffff;fill-opacity:1;fill-rule:nonzero;stroke:none" /><g
           transform="translate(38.3887,32.1226)"
           id="g3464"><path
             d="m 0,0 0,14.615 -0.347,0 0,-14.19 C -0.184,0.323 -0.067,0.169 0,0"
             id="path3466"
             style="fill:#ffffff;fill-opacity:1;fill-rule:nonzero;stroke:none" /></g><g
           transform="translate(37.6025,33.002)"
           id="g3468"><path
             d="m 0,0 0,-0.233 -0.163,0 -0.002,-0.003 -0.006,0.003 -3.626,0 c 0.13,-0.005 0.257,-0.012 0.386,-0.016 1.132,-0.043 2.262,-0.071 3.396,-0.074 0.104,-0.002 0.192,-0.022 0.279,-0.051 l 0,13.761 -1.455,0 0,-3.37 1.066,-0.499 0.125,0 0,-0.232 -1.191,0 0,-3.703 1.007,-0.484 0.184,0 0,-0.233 -0.203,0 -0.006,-0.014 -0.025,0.014 -0.957,0 0,-4.357 L -0.12,0 0,0 z"
             id="path3470"
             style="fill:#ffffff;fill-opacity:1;fill-rule:nonzero;stroke:none" /></g><g
           transform="translate(29.0186,33.9941)"
           id="g3472"><path
             d="M 0,0 C 0.213,0.025 0.431,-0.04 0.597,-0.176 0.605,-0.185 0.612,-0.195 0.621,-0.2 0.73,-0.212 0.842,-0.267 0.938,-0.336 l 0,4.21 -0.821,0 -0.018,-0.01 -0.007,0.01 -0.289,0 0,0.233 0.244,0 0.891,0.571 0,3.616 -0.821,0 -0.018,-0.011 -0.007,0.011 -0.289,0 0,0.232 0.244,0 0.891,0.572 0,3.297 -0.821,0 -0.018,-0.011 -0.007,0.011 -0.347,0 0,-12.468 C -0.179,-0.038 -0.099,-0.009 0,0"
             id="path3474"
             style="fill:#ffffff;fill-opacity:1;fill-rule:nonzero;stroke:none" /></g><g
           transform="translate(35.2207,46.3887)"
           id="g3476"><path
             d="M 0,0 -1.288,0 -1.306,-0.011 -1.313,0 l -2.759,0 0,-3.144 1.617,-0.725 1.098,0 L 0,-3 0,0 z"
             id="path3478"
             style="fill:#ffffff;fill-opacity:1;fill-rule:nonzero;stroke:none" /></g><g
           transform="translate(30.915,49.9644)"
           id="g3480"><path
             d="m 0,0 -0.557,0 -0.17,-0.106 0,-0.295 0.727,0 L 0,0 z"
             id="path3482"
             style="fill:#ffffff;fill-opacity:1;fill-rule:nonzero;stroke:none" /></g><g
           transform="translate(29.4951,46.6216)"
           id="g3484"><path
             d="m 0,0 0.461,0 0,0.293 L 0,0 z"
             id="path3486"
             style="fill:#ffffff;fill-opacity:1;fill-rule:nonzero;stroke:none" /></g><g
           transform="translate(29.9561,49.1792)"
           id="g3488"><path
             d="M 0,0 -0.82,0 -0.839,-0.008 -0.846,0 l -0.346,0 0,-2.558 0.057,0 0.244,0 L 0,-1.987 0,0 z"
             id="path3490"
             style="fill:#ffffff;fill-opacity:1;fill-rule:nonzero;stroke:none" /></g><g
           transform="translate(29.0654,49.4131)"
           id="g3492"><path
             d="m 0,0 0.891,0.572 0,1.202 -0.668,0 0,-0.756 -0.525,0 L -0.302,0 0,0 z"
             id="path3494"
             style="fill:#ffffff;fill-opacity:1;fill-rule:nonzero;stroke:none" /></g><g
           transform="translate(30.5615,33.7095)"
           id="g3496"><path
             d="M 0,0 0.106,0 0.044,0.028 0,0 z"
             id="path3498"
             style="fill:#ffffff;fill-opacity:1;fill-rule:nonzero;stroke:none" /></g><g
           transform="translate(30.915,34.1099)"
           id="g3500"><path
             d="m 0,0 -0.727,0 0,-0.363 0.399,0.254 L 0,-0.255 0,0 z"
             id="path3502"
             style="fill:#ffffff;fill-opacity:1;fill-rule:nonzero;stroke:none" /></g><g
           transform="translate(30.1885,47.4277)"
           id="g3504"><path
             d="M 0,0 0,-0.085 0.138,0 0,0 z"
             id="path3506"
             style="fill:#ffffff;fill-opacity:1;fill-rule:nonzero;stroke:none" /></g><path
           d="m 30.915,35.379 -0.727,0 0,-0.402 0.727,0 0,0.402 z"
           id="path3508"
           style="fill:#ffffff;fill-opacity:1;fill-rule:nonzero;stroke:none" /><path
           d="m 30.915,41.722 -0.727,0 0,-0.402 0.727,0 0,0.402 z"
           id="path3510"
           style="fill:#ffffff;fill-opacity:1;fill-rule:nonzero;stroke:none" /><g
           transform="translate(35.2207,47.2144)"
           id="g3512"><path
             d="M 0,0 -0.926,-0.593 0,-0.593 0,0 z"
             id="path3514"
             style="fill:#ffffff;fill-opacity:1;fill-rule:nonzero;stroke:none" /></g><g
           transform="translate(31.1484,46.6216)"
           id="g3516"><path
             d="M 0,0 1.019,0 0,0.462 0,0 z"
             id="path3518"
             style="fill:#ffffff;fill-opacity:1;fill-rule:nonzero;stroke:none" /></g><g
           transform="translate(31.1484,49.4131)"
           id="g3520"><path
             d="M 0,0 1.027,0 0,0.465 0,0 z"
             id="path3522"
             style="fill:#ffffff;fill-opacity:1;fill-rule:nonzero;stroke:none" /></g><g
           transform="translate(35.2207,50.0078)"
           id="g3524"><path
             d="M 0,0 -0.926,-0.595 0,-0.595 0,0 z"
             id="path3526"
             style="fill:#ffffff;fill-opacity:1;fill-rule:nonzero;stroke:none" /></g><g
           transform="translate(35.2207,49.1792)"
           id="g3528"><path
             d="M 0,0 -1.288,0 -1.306,-0.008 -1.313,0 l -2.759,0 0,-1.839 1.561,-0.71 -0.004,-0.009 1.158,0 L 0,-1.687 0,0 z"
             id="path3530"
             style="fill:#ffffff;fill-opacity:1;fill-rule:nonzero;stroke:none" /></g><path
           d="m 30.915,34.744 -0.727,0 0,-0.4 0.727,0 0,0.4 z"
           id="path3532"
           style="fill:#ffffff;fill-opacity:1;fill-rule:nonzero;stroke:none" /><path
           d="m 30.915,39.82 -0.727,0 0,-0.401 0.727,0 0,0.401 z"
           id="path3534"
           style="fill:#ffffff;fill-opacity:1;fill-rule:nonzero;stroke:none" /><g
           transform="translate(30.915,39.1821)"
           id="g3536"><path
             d="m 0,0 -0.727,0 0,-0.361 0.399,0.256 L 0,-0.258 0,0 z"
             id="path3538"
             style="fill:#ffffff;fill-opacity:1;fill-rule:nonzero;stroke:none" /></g><g
           transform="translate(30.5596,38.7827)"
           id="g3540"><path
             d="M 0,0 0.107,0 0.045,0.029 0,0 z"
             id="path3542"
             style="fill:#ffffff;fill-opacity:1;fill-rule:nonzero;stroke:none" /></g><path
           d="m 30.915,41.086 -0.727,0 0,-0.4 0.727,0 0,0.4 z"
           id="path3544"
           style="fill:#ffffff;fill-opacity:1;fill-rule:nonzero;stroke:none" /><path
           d="m 30.915,40.454 -0.727,0 0,-0.402 0.727,0 0,0.402 z"
           id="path3546"
           style="fill:#ffffff;fill-opacity:1;fill-rule:nonzero;stroke:none" /><path
           d="m 30.915,36.647 -0.727,0 0,-0.402 0.727,0 0,0.402 z"
           id="path3548"
           style="fill:#ffffff;fill-opacity:1;fill-rule:nonzero;stroke:none" /><path
           d="m 30.915,36.013 -0.727,0 0,-0.401 0.727,0 0,0.401 z"
           id="path3550"
           style="fill:#ffffff;fill-opacity:1;fill-rule:nonzero;stroke:none" /><path
           d="m 30.915,37.281 -0.727,0 0,-0.401 0.727,0 0,0.401 z"
           id="path3552"
           style="fill:#ffffff;fill-opacity:1;fill-rule:nonzero;stroke:none" /><g
           transform="translate(30.915,38.5527)"
           id="g3554"><path
             d="m 0,0 -0.716,0 -0.011,-0.008 0,-0.396 0.727,0 L 0,0 z"
             id="path3556"
             style="fill:#ffffff;fill-opacity:1;fill-rule:nonzero;stroke:none" /></g><path
           d="m 30.915,37.868 -0.727,0 0,-0.354 0.727,0 0,0.354 z"
           id="path3558"
           style="fill:#ffffff;fill-opacity:1;fill-rule:nonzero;stroke:none" /><g
           transform="translate(64.4365,32.0801)"
           id="g3560"><path
             d="m 0,0 1.164,1.337 -2.589,0 -0.437,0 -2.588,0 1.163,-1.337 0,0.116 1.396,0 0,0.698 1.107,0 0,-8.084 -0.235,0 0,7.852 -0.637,0 0,-0.7 -1.631,0 0,0.118 -1.86,0 0,-7.386 7.008,0 L 1.861,0 0,0 z"
             id="path3562"
             style="fill:#ffffff;fill-opacity:1;fill-rule:nonzero;stroke:none" /></g><path
           d="m 59.755,33.388 6.021,0 0,10.093 -6.021,0 0,-10.093 z m 5.205,9.541 0.233,0 0,-1.425 -0.233,0 0,1.425 z m -0.58,0 0.231,0 0,-1.425 -0.231,0 0,1.425 z m -0.583,0 0.232,0 0,-1.425 -0.232,0 0,1.425 z m -0.582,0 0.234,0 0,-1.425 -0.234,0 0,1.425 z m -0.581,0 0.233,0 0,-1.425 -0.233,0 0,1.425 z m -0.58,0 0.231,0 0,-1.425 -0.231,0 0,1.425 z m -0.582,0 0.23,0 0,-1.425 -0.23,0 0,1.425 z m -0.583,0 0.232,0 0,-1.425 -0.232,0 0,1.425 z m -0.582,0 0.232,0 0,-1.425 -0.232,0 0,1.425 z m 4.944,-8.844 -4.957,-0.013 0,7.068 4.957,0.016 0,-7.071 z"
           id="path3564"
           style="fill:#ffffff;fill-opacity:1;fill-rule:nonzero;stroke:none" /><path
           d="m 27.3,30.005 0.639,0 0,0.902 -0.639,0 0,-0.902 z"
           id="path3566"
           style="fill:#ffffff;fill-opacity:1;fill-rule:nonzero;stroke:none" /><g
           transform="translate(27.2998,31.1411)"
           id="g3568"><path
             d="m 0,0 0.639,0 0,1.942 C 0.419,1.895 0.207,1.834 0,1.76 L 0,0 z"
             id="path3570"
             style="fill:#ffffff;fill-opacity:1;fill-rule:nonzero;stroke:none" /></g><g
           transform="translate(30.0811,33.0654)"
           id="g3572"><path
             d="M 0,0 C -0.45,0.106 -0.9,0.148 -1.354,0.126 -1.541,0.118 -1.729,0.097 -1.909,0.064 l 0,-8.436 1.909,0 L 0,0 z"
             id="path3574"
             style="fill:#ffffff;fill-opacity:1;fill-rule:nonzero;stroke:none" /></g><g
           transform="translate(26.2246,31.1411)"
           id="g3576"><path
             d="m 0,0 0.843,0 0,1.669 C 0.548,1.549 0.266,1.407 0,1.25 L 0,0 z"
             id="path3578"
             style="fill:#ffffff;fill-opacity:1;fill-rule:nonzero;stroke:none" /></g><path
           d="m 32.263,28.872 0.844,0 0,0.901 -0.844,0 0,-0.901 z"
           id="path3580"
           style="fill:#ffffff;fill-opacity:1;fill-rule:nonzero;stroke:none" /><path
           d="m 25.991,28.639 -0.844,0 0,-3.945 0.844,0 0,3.945 z"
           id="path3582"
           style="fill:#ffffff;fill-opacity:1;fill-rule:nonzero;stroke:none" /><path
           d="m 27.067,28.639 -0.845,0 0,-3.945 0.845,0 0,3.945 z"
           id="path3584"
           style="fill:#ffffff;fill-opacity:1;fill-rule:nonzero;stroke:none" /><path
           d="m 27.94,28.639 -0.641,0 0,-3.945 0.641,0 0,3.945 z"
           id="path3586"
           style="fill:#ffffff;fill-opacity:1;fill-rule:nonzero;stroke:none" /><g
           transform="translate(25.9912,31.1411)"
           id="g3588"><path
             d="M 0,0 0,1.105 C -0.304,0.91 -0.586,0.698 -0.844,0.479 L -0.844,0 0,0 z"
             id="path3590"
             style="fill:#ffffff;fill-opacity:1;fill-rule:nonzero;stroke:none" /></g><g
           transform="translate(38.5791,28.4648)"
           id="g3592"><path
             d="m 0,0 0.092,-0.093 0,-3.678 1.396,0 0,3.021 L 0.63,0 0,0 z"
             id="path3594"
             style="fill:#ffffff;fill-opacity:1;fill-rule:nonzero;stroke:none" /></g><path
           d="m 27.3,28.872 0.639,0 0,0.901 -0.639,0 0,-0.901 z"
           id="path3596"
           style="fill:#ffffff;fill-opacity:1;fill-rule:nonzero;stroke:none" /><g
           transform="translate(20.2334,31.2065)"
           id="g3598"><path
             d="m 0,0 0,-2.33 -0.179,-0.18 1.496,0 0,-0.232 -1.73,0 -0.14,-0.139 0,-0.137 1.861,0 0,-0.233 -1.861,0 0,-1.077 1.861,0 0,-0.234 -1.861,0 0,-0.959 1.861,0 0,-0.231 -1.861,0 0,-0.724 2.007,0 0,5.624 1.909,0 c 0.835,1.04 2.683,2.944 5.119,3.069 1.948,0.101 3.869,-0.933 5.729,-3.069 l 2.084,0 0,-5.667 2.025,0 0,0.767 -1.889,0 0,0.231 1.889,0 0,0.959 -1.889,0 0,0.234 1.889,0 0,1.077 -1.889,0 0,0.233 1.889,0 0,0.137 -0.137,0.139 -1.734,0 0,0.232 1.498,0 -0.179,0.18 0,2.33 -0.212,0 -0.35,0 1.163,0.699 -0.951,0.949 -4.719,0 c -1.827,1.498 -4.487,2.51 -7.503,0 l -4.994,0 L -0.748,0.699 0.415,0 0,0 z"
             id="path3600"
             style="fill:#ffffff;fill-opacity:1;fill-rule:nonzero;stroke:none" /></g><path
           d="m 27.067,29.773 -0.845,0 0,-0.901 0.845,0 0,0.901 z"
           id="path3602"
           style="fill:#ffffff;fill-opacity:1;fill-rule:nonzero;stroke:none" /><path
           d="m 25.991,29.773 -0.844,0 0,-0.901 0.844,0 0,0.901 z"
           id="path3604"
           style="fill:#ffffff;fill-opacity:1;fill-rule:nonzero;stroke:none" /><path
           d="m 25.991,30.907 -0.844,0 0,-0.902 0.844,0 0,0.902 z"
           id="path3606"
           style="fill:#ffffff;fill-opacity:1;fill-rule:nonzero;stroke:none" /><path
           d="m 27.067,30.907 -0.845,0 0,-0.902 0.845,0 0,0.902 z"
           id="path3608"
           style="fill:#ffffff;fill-opacity:1;fill-rule:nonzero;stroke:none" /><g
           transform="translate(31.1875,32.6797)"
           id="g3610"><path
             d="m 0,0 0,-1.539 0.844,0 0,1.07 C 0.561,-0.288 0.281,-0.13 0,0"
             id="path3612"
             style="fill:#ffffff;fill-opacity:1;fill-rule:nonzero;stroke:none" /></g><g
           transform="translate(19.0254,28.4648)"
           id="g3614"><path
             d="m 0,0 -0.858,-0.75 0,-2.984 1.395,0 0,3.641 L 0.632,0 0,0 z"
             id="path3616"
             style="fill:#ffffff;fill-opacity:1;fill-rule:nonzero;stroke:none" /></g><path
           d="m 33.106,28.639 -0.844,0 0,-3.945 0.844,0 0,3.945 z"
           id="path3618"
           style="fill:#ffffff;fill-opacity:1;fill-rule:nonzero;stroke:none" /><path
           d="m 30.954,30.907 -0.638,0 0,-0.902 0.638,0 0,0.902 z"
           id="path3620"
           style="fill:#ffffff;fill-opacity:1;fill-rule:nonzero;stroke:none" /><g
           transform="translate(32.2627,31.1411)"
           id="g3622"><path
             d="m 0,0 0.844,0 0,0.243 C 0.563,0.491 0.282,0.716 0,0.914 L 0,0 z"
             id="path3624"
             style="fill:#ffffff;fill-opacity:1;fill-rule:nonzero;stroke:none" /></g><g
           transform="translate(41.0459,28.311)"
           id="g3626"><path
             d="m 0,0 0,0.417 1.28,0 c 0,0 -0.97,2.363 -2.094,2.479 l -2.114,0 0,-2.282 0.228,-0.228 0.949,0 1.004,-0.879 0,-3.088 0.592,0 0.155,-0.036 0,2.521 1.512,0 L 0,0 z"
             id="path3628"
             style="fill:#ffffff;fill-opacity:1;fill-rule:nonzero;stroke:none" /></g><g
           transform="translate(24.915,24.6938)"
           id="g3630"><path
             d="M 0,0 0,6.722 C -1.008,5.811 -1.597,4.89 -1.607,4.872 L -1.805,4.993 C -1.8,5.001 -1.695,5.17 -1.5,5.429 l -1.495,0 0,-5.392 0.9,0 L -2.095,0 0,0 z"
             id="path3632"
             style="fill:#ffffff;fill-opacity:1;fill-rule:nonzero;stroke:none" /></g><g
           transform="translate(36.2959,30.123)"
           id="g3634"><path
             d="m 0,0 -1.65,0 c 0.122,-0.148 0.243,-0.298 0.365,-0.455 L -1.469,-0.597 C -1.96,0.034 -2.458,0.584 -2.955,1.052 l 0,-6.481 2.159,0 0,-0.002 0.796,0 L 0,0 z"
             id="path3636"
             style="fill:#ffffff;fill-opacity:1;fill-rule:nonzero;stroke:none" /></g><g
           transform="translate(17.9355,27.8184)"
           id="g3638"><path
             d="m 0,0 1.004,0.878 0.949,0 0.229,0.228 0,2.282 -1.911,0 C -0.854,3.272 -1.821,0.909 -1.821,0.909 l 1.277,0 0,-0.302 -1.667,-1.211 1.515,0 0,-2.521 0.152,0.037 0.544,0 L 0,0 z"
             id="path3640"
             style="fill:#ffffff;fill-opacity:1;fill-rule:nonzero;stroke:none" /></g><path
           d="m 32.031,29.773 -0.844,0 0,-0.901 0.844,0 0,0.901 z"
           id="path3642"
           style="fill:#ffffff;fill-opacity:1;fill-rule:nonzero;stroke:none" /><path
           d="m 30.954,29.773 -0.638,0 0,-0.901 0.638,0 0,0.901 z"
           id="path3644"
           style="fill:#ffffff;fill-opacity:1;fill-rule:nonzero;stroke:none" /><path
           d="m 32.263,30.005 0.844,0 0,0.902 -0.844,0 0,-0.902 z"
           id="path3646"
           style="fill:#ffffff;fill-opacity:1;fill-rule:nonzero;stroke:none" /><path
           d="m 30.954,28.639 -0.638,0 0,-3.945 0.638,0 0,3.945 z"
           id="path3648"
           style="fill:#ffffff;fill-opacity:1;fill-rule:nonzero;stroke:none" /><path
           d="m 32.031,28.639 -0.844,0 0,-3.945 0.844,0 0,3.945 z"
           id="path3650"
           style="fill:#ffffff;fill-opacity:1;fill-rule:nonzero;stroke:none" /><g
           transform="translate(30.3135,31.1411)"
           id="g3652"><path
             d="m 0,0 0.64,0 0,1.643 C 0.428,1.73 0.214,1.808 0,1.868 L 0,0 z"
             id="path3654"
             style="fill:#ffffff;fill-opacity:1;fill-rule:nonzero;stroke:none" /></g><path
           d="m 31.188,30.005 0.844,0 0,0.902 -0.844,0 0,-0.902 z"
           id="path3656"
           style="fill:#ffffff;fill-opacity:1;fill-rule:nonzero;stroke:none" /><g
           transform="translate(23.9561,57.7495)"
           id="g3658"><path
             d="m 0,0 -0.01,1.513 -0.088,0.087 0,4.363 -0.388,0 -0.164,0 -0.39,0 0,-4.363 -0.085,-0.087 0,-1.513 -2.122,-2.501 0,-1.599 5.398,0.069 0.02,-0.069 0,1.599 L 0,0 z"
             id="path3660"
             style="fill:#ffffff;fill-opacity:1;fill-rule:nonzero;stroke:none" /></g></g></g></g></svg>