<?xml version="1.0" encoding="UTF-8" standalone="no"?>
<!-- Created with Inkscape (http://www.inkscape.org/) -->

<svg
   xmlns:dc="http://purl.org/dc/elements/1.1/"
   xmlns:cc="http://creativecommons.org/ns#"
   xmlns:rdf="http://www.w3.org/1999/02/22-rdf-syntax-ns#"
   xmlns:svg="http://www.w3.org/2000/svg"
   xmlns="http://www.w3.org/2000/svg"
   version="1.1"
   width="103.465"
   height="103.465"
   id="svg3700"
   xml:space="preserve"><metadata
     id="metadata3706"><rdf:RDF><cc:Work
         rdf:about=""><dc:format>image/svg+xml</dc:format><dc:type
           rdf:resource="http://purl.org/dc/dcmitype/StillImage" /><dc:title></dc:title></cc:Work></rdf:RDF></metadata><defs
     id="defs3704"><clipPath
       id="clipPath3714"><path
         d="m 0,82.772 82.772,0 L 82.772,0 0,0 0,82.772 z"
         id="path3716" /></clipPath></defs><g
     transform="matrix(1.25,0,0,-1.25,0,103.465)"
     id="g3708"><g
       id="g3710"><g
         clip-path="url(#clipPath3714)"
         id="g3712"><g
           transform="translate(82.4883,41.3853)"
           id="g3718"><path
             d="m 0,0 c 0,-22.701 -18.402,-41.101 -41.103,-41.101 -22.7,0 -41.102,18.4 -41.102,41.101 0,22.7 18.402,41.103 41.102,41.103 C -18.402,41.103 0,22.7 0,0"
             id="path3720"
             style="fill:#f9b177;fill-opacity:1;fill-rule:nonzero;stroke:none" /></g><g
           transform="translate(65.46,41.3853)"
           id="g3722"><path
             d="m 0,0 c 0,-13.294 -10.777,-24.074 -24.074,-24.074 -13.295,0 -24.074,10.78 -24.074,24.074 0,13.297 10.779,24.074 24.074,24.074 C -10.777,24.074 0,13.297 0,0 m -31.518,10.773 c -1.439,0 -2.607,-1.166 -2.607,-2.605 0,-1.439 1.168,-2.605 2.607,-2.605 1.436,0 2.606,1.166 2.606,2.605 0,1.439 -1.17,2.605 -2.606,2.605 m 14.889,0 c -1.441,0 -2.605,-1.166 -2.605,-2.605 0,-1.439 1.164,-2.605 2.605,-2.605 1.44,0 2.604,1.166 2.604,2.605 0,1.439 -1.164,2.605 -2.604,2.605 m 4.627,-11.999 c -0.016,-0.168 -0.115,-0.982 -0.018,-0.264 -0.031,-0.222 -0.068,-0.449 -0.107,-0.674 -0.09,-0.482 -0.211,-0.955 -0.35,-1.423 -0.127,-0.428 -0.277,-0.848 -0.441,-1.262 -0.158,-0.385 0.195,0.457 0.029,0.078 -0.045,-0.102 -0.09,-0.203 -0.138,-0.303 -0.11,-0.234 -0.229,-0.461 -0.348,-0.687 -0.207,-0.387 -0.438,-0.764 -0.682,-1.129 -0.121,-0.182 -0.248,-0.361 -0.377,-0.537 -0.08,-0.108 -0.332,-0.43 0.053,0.062 -0.09,-0.117 -0.183,-0.226 -0.275,-0.34 -0.582,-0.701 -1.239,-1.336 -1.944,-1.914 -0.103,-0.084 -0.427,-0.332 0.069,0.049 -0.088,-0.068 -0.176,-0.133 -0.264,-0.195 -0.18,-0.131 -0.359,-0.254 -0.539,-0.373 -0.4,-0.266 -0.811,-0.504 -1.232,-0.725 -0.198,-0.101 -0.395,-0.197 -0.596,-0.293 -0.098,-0.047 -0.201,-0.09 -0.301,-0.135 0.578,0.254 0.201,0.084 0.074,0.036 -0.449,-0.184 -0.91,-0.332 -1.373,-0.467 -0.435,-0.125 -0.877,-0.223 -1.322,-0.307 -0.166,-0.029 -0.971,-0.137 -0.25,-0.045 -0.27,-0.035 -0.537,-0.058 -0.807,-0.074 -0.466,-0.033 -0.933,-0.039 -1.404,-0.025 -0.232,0.006 -0.463,0.023 -0.695,0.041 -0.115,0.007 -0.231,0.019 -0.346,0.031 -0.57,0.059 0.336,-0.053 -0.029,0 -0.746,0.105 -1.483,0.283 -2.199,0.506 -0.356,0.113 -0.704,0.24 -1.049,0.379 -0.198,0.08 -0.137,0.056 0.179,-0.075 -0.101,0.043 -0.201,0.088 -0.304,0.135 -0.2,0.094 -0.399,0.192 -0.594,0.293 -0.682,0.352 -1.33,0.768 -1.947,1.225 -0.166,0.129 -0.116,0.09 0.15,-0.117 -0.086,0.068 -0.17,0.136 -0.256,0.207 -0.14,0.115 -0.275,0.234 -0.414,0.355 -0.301,0.264 -0.584,0.547 -0.861,0.836 -0.25,0.264 -0.49,0.537 -0.721,0.822 -0.045,0.053 -0.09,0.112 -0.137,0.17 0.389,-0.49 0.133,-0.17 0.055,-0.064 -0.109,0.146 -0.215,0.297 -0.318,0.447 -0.434,0.635 -0.811,1.311 -1.135,2.008 -0.033,0.068 -0.063,0.135 -0.094,0.201 -0.17,0.379 0.192,-0.461 0.033,-0.078 -0.07,0.174 -0.136,0.346 -0.199,0.519 -0.14,0.387 -0.262,0.78 -0.367,1.176 -0.1,0.364 -0.18,0.731 -0.246,1.102 -0.035,0.187 -0.065,0.377 -0.09,0.564 0.104,-0.718 -0.004,0.092 -0.016,0.262 -0.093,1.101 -0.851,2.027 -2.027,2.027 -1.035,0 -2.121,-0.926 -2.027,-2.027 0.355,-4.139 2.176,-8.039 5.283,-10.832 3.115,-2.795 7.242,-4.316 11.43,-4.162 3.98,0.146 7.777,1.789 10.652,4.535 2.883,2.75 4.545,6.518 4.885,10.461 0.094,1.103 -0.996,2.027 -2.028,2.027 -1.177,0 -1.933,-0.928 -2.025,-2.027"
             id="path3724"
             style="fill:#ffffff;fill-opacity:1;fill-rule:nonzero;stroke:none" /></g></g></g></g></svg>