<?xml version="1.0" encoding="UTF-8" standalone="no"?>
<!-- Created with Inkscape (http://www.inkscape.org/) -->

<svg
   xmlns:dc="http://purl.org/dc/elements/1.1/"
   xmlns:cc="http://creativecommons.org/ns#"
   xmlns:rdf="http://www.w3.org/1999/02/22-rdf-syntax-ns#"
   xmlns:svg="http://www.w3.org/2000/svg"
   xmlns="http://www.w3.org/2000/svg"
   version="1.1"
   width="103.46438"
   height="103.46562"
   id="svg3844"
   xml:space="preserve"><metadata
     id="metadata3850"><rdf:RDF><cc:Work
         rdf:about=""><dc:format>image/svg+xml</dc:format><dc:type
           rdf:resource="http://purl.org/dc/dcmitype/StillImage" /><dc:title></dc:title></cc:Work></rdf:RDF></metadata><defs
     id="defs3848"><clipPath
       id="clipPath3858"><path
         d="m 0,82.772 82.771,0 L 82.771,0 0,0 0,82.772 z"
         id="path3860" /></clipPath></defs><g
     transform="matrix(1.25,0,0,-1.25,0,103.46562)"
     id="g3852"><g
       id="g3854"><g
         clip-path="url(#clipPath3858)"
         id="g3856"><g
           transform="translate(82.4878,41.3857)"
           id="g3862"><path
             d="m 0,0 c 0,-22.7 -18.402,-41.101 -41.103,-41.101 -22.7,0 -41.102,18.401 -41.102,41.101 0,22.701 18.402,41.102 41.102,41.102 C -18.402,41.102 0,22.701 0,0"
             id="path3864"
             style="fill:#daed84;fill-opacity:1;fill-rule:nonzero;stroke:none" /></g><g
           transform="translate(51.2373,49.4463)"
           id="g3866"><path
             d="M 0,0 C 0.449,-0.344 1.01,-0.568 1.586,-0.583 2.16,-0.612 2.725,-0.442 3.211,-0.13 3.686,0.197 4.059,0.652 4.254,1.196 4.463,1.731 4.471,2.337 4.324,2.884 4.172,3.431 3.834,3.936 3.387,4.288 2.938,4.633 2.377,4.857 1.803,4.871 1.227,4.901 0.662,4.73 0.178,4.418 -0.297,4.092 -0.672,3.635 -0.865,3.093 -1.074,2.558 -1.082,1.952 -0.936,1.406 -0.781,0.858 -0.445,0.353 0,0"
             id="path3868"
             style="fill:#ffffff;fill-opacity:1;fill-rule:nonzero;stroke:none" /></g><g
           transform="translate(41.9795,52.0605)"
           id="g3870"><path
             d="M 0,0 C -0.521,0.401 -1.174,0.663 -1.842,0.678 -2.51,0.712 -3.166,0.514 -3.73,0.15 c -0.553,-0.379 -0.987,-0.91 -1.211,-1.54 -0.245,-0.623 -0.254,-1.326 -0.084,-1.96 0.177,-0.636 0.57,-1.224 1.087,-1.633 0.522,-0.401 1.174,-0.664 1.842,-0.677 0.67,-0.035 1.326,0.162 1.889,0.525 0.553,0.381 0.986,0.911 1.213,1.542 0.242,0.621 0.252,1.323 0.082,1.96 C 0.91,-0.997 0.518,-0.41 0,0"
             id="path3872"
             style="fill:#ffffff;fill-opacity:1;fill-rule:nonzero;stroke:none" /></g><g
           transform="translate(52.6709,39.0264)"
           id="g3874"><path
             d="m 0,0 c -0.152,-0.199 -0.328,-0.377 -0.518,-0.542 -0.193,-0.156 -0.4,-0.299 -0.623,-0.414 0.092,-0.59 0.094,-1.207 -0.002,-1.83 -0.406,-0.129 -0.828,-0.215 -1.252,-0.237 -0.367,0.54 -0.626,1.121 -0.771,1.71 -0.25,0.029 -0.494,0.095 -0.729,0.178 -0.236,0.083 -0.459,0.2 -0.671,0.329 -0.461,-0.367 -1,-0.683 -1.584,-0.909 -0.321,0.284 -0.594,0.611 -0.832,0.96 0.285,0.591 0.66,1.107 1.091,1.528 -0.089,0.233 -0.166,0.471 -0.207,0.719 -0.041,0.247 -0.064,0.497 -0.047,0.747 -0.562,0.215 -1.089,0.522 -1.584,0.915 0.084,0.417 0.233,0.821 0.416,1.203 0.657,0.049 1.288,-0.017 1.872,-0.184 0.152,0.2 0.328,0.378 0.515,0.543 0.196,0.156 0.401,0.299 0.623,0.413 -0.092,0.589 -0.093,1.206 0.004,1.831 0.406,0.128 0.828,0.213 1.25,0.235 0.367,-0.539 0.629,-1.12 0.776,-1.711 0.248,-0.027 0.49,-0.093 0.726,-0.176 0.234,-0.083 0.457,-0.2 0.672,-0.329 0.459,0.368 1,0.684 1.584,0.909 C 1.027,5.604 1.301,5.277 1.541,4.929 1.256,4.337 0.881,3.821 0.449,3.402 0.539,3.168 0.615,2.929 0.656,2.681 0.695,2.434 0.719,2.183 0.703,1.934 1.264,1.719 1.791,1.412 2.285,1.019 2.201,0.602 2.055,0.198 1.869,-0.185 1.215,-0.233 0.582,-0.167 0,0 M -9.271,6.675 C -9.434,6.517 -9.629,6.398 -9.805,6.259 c -0.197,-0.11 -0.381,-0.242 -0.588,-0.332 0.094,-0.575 0.145,-1.192 0.125,-1.789 -0.32,-0.122 -0.648,-0.214 -0.982,-0.286 -0.375,0.491 -0.695,1.034 -0.941,1.563 -0.227,-0.004 -0.452,-0.033 -0.676,-0.011 -0.225,0.005 -0.449,0.032 -0.67,0.072 -0.268,-0.539 -0.58,-1.028 -0.953,-1.522 -0.326,0.095 -0.651,0.204 -0.959,0.347 -0.014,0.626 0.037,1.23 0.156,1.823 -0.197,0.106 -0.375,0.249 -0.557,0.381 -0.171,0.142 -0.345,0.29 -0.5,0.453 -0.517,-0.266 -1.088,-0.499 -1.664,-0.667 -0.209,0.27 -0.406,0.545 -0.57,0.843 0.346,0.506 0.766,0.978 1.195,1.382 -0.09,0.204 -0.158,0.421 -0.226,0.634 -0.051,0.219 -0.114,0.437 -0.135,0.662 -0.588,0.088 -1.17,0.234 -1.738,0.437 -0.024,0.341 0.004,0.682 0.027,1.021 0.604,0.203 1.182,0.342 1.785,0.411 0.049,0.219 0.11,0.436 0.194,0.646 0.066,0.214 0.179,0.411 0.269,0.617 -0.414,0.41 -0.799,0.871 -1.15,1.375 0.199,0.279 0.396,0.56 0.633,0.806 0.591,-0.173 1.162,-0.423 1.683,-0.715 0.16,0.157 0.356,0.277 0.531,0.415 0.198,0.11 0.379,0.243 0.588,0.332 -0.093,0.576 -0.144,1.192 -0.125,1.788 0.319,0.123 0.649,0.215 0.985,0.287 0.375,-0.491 0.691,-1.033 0.939,-1.563 0.225,0.004 0.451,0.034 0.676,0.012 0.226,-0.004 0.449,-0.033 0.672,-0.071 0.265,0.537 0.58,1.027 0.949,1.519 0.328,-0.094 0.652,-0.203 0.961,-0.347 0.014,-0.625 -0.037,-1.228 -0.156,-1.822 0.197,-0.107 0.373,-0.248 0.556,-0.379 0.172,-0.143 0.346,-0.291 0.5,-0.455 0.518,0.265 1.088,0.499 1.664,0.667 0.209,-0.268 0.405,-0.544 0.571,-0.843 -0.346,-0.506 -0.766,-0.978 -1.198,-1.381 0.092,-0.204 0.163,-0.421 0.227,-0.634 0.053,-0.22 0.115,-0.438 0.137,-0.663 0.588,-0.087 1.17,-0.234 1.738,-0.437 0.023,-0.341 -0.004,-0.682 -0.027,-1.02 C -6.463,9.612 -7.041,9.473 -7.645,9.405 -7.695,9.186 -7.754,8.967 -7.838,8.757 -7.904,8.541 -8.018,8.345 -8.107,8.139 -7.695,7.729 -7.309,7.269 -6.957,6.765 -7.156,6.487 -7.354,6.206 -7.59,5.959 -8.18,6.133 -8.752,6.383 -9.271,6.675 m 3.679,6.515 c 0.52,0.174 1.016,0.295 1.535,0.355 0.045,0.188 0.096,0.374 0.168,0.557 0.057,0.184 0.155,0.352 0.231,0.531 -0.354,0.351 -0.688,0.748 -0.988,1.183 0.169,0.238 0.339,0.479 0.542,0.692 0.508,-0.151 1,-0.365 1.45,-0.615 0.138,0.136 0.304,0.237 0.457,0.358 0.17,0.094 0.326,0.208 0.506,0.284 -0.08,0.496 -0.123,1.026 -0.106,1.539 0.274,0.107 0.557,0.187 0.844,0.248 0.324,-0.424 0.598,-0.888 0.81,-1.346 0.194,0.003 0.387,0.03 0.582,0.01 0.194,-0.005 0.385,-0.027 0.577,-0.062 0.23,0.464 0.5,0.885 0.82,1.308 0.279,-0.081 0.559,-0.175 0.824,-0.298 0.012,-0.537 -0.031,-1.057 -0.135,-1.568 0.172,-0.093 0.323,-0.215 0.481,-0.326 0.148,-0.124 0.297,-0.252 0.43,-0.392 0.443,0.228 0.935,0.429 1.431,0.576 0.18,-0.232 0.35,-0.471 0.49,-0.728 C 5.061,15.063 4.699,14.655 4.33,14.31 4.406,14.131 4.465,13.946 4.523,13.762 4.568,13.573 4.621,13.387 4.641,13.194 5.145,13.117 5.648,12.992 6.137,12.817 6.158,12.523 6.133,12.23 6.111,11.938 5.594,11.764 5.098,11.644 4.576,11.586 4.533,11.395 4.482,11.209 4.41,11.028 4.354,10.843 4.256,10.674 4.18,10.497 4.533,10.143 4.867,9.748 5.168,9.313 4.996,9.075 4.826,8.833 4.623,8.621 4.113,8.771 3.623,8.985 3.176,9.234 3.037,9.1 2.869,8.998 2.717,8.88 2.549,8.784 2.393,8.67 2.211,8.592 2.293,8.098 2.336,7.567 2.318,7.053 2.043,6.947 1.762,6.868 1.473,6.808 1.15,7.23 0.877,7.696 0.662,8.152 0.469,8.149 0.275,8.123 0.082,8.143 -0.111,8.147 -0.305,8.17 -0.496,8.203 -0.725,7.741 -0.994,7.32 -1.314,6.896 -1.596,6.977 -1.875,7.07 -2.141,7.194 -2.152,7.731 -2.107,8.252 -2.006,8.763 -2.176,8.854 -2.328,8.977 -2.486,9.09 -2.633,9.215 -2.781,9.34 -2.914,9.48 -3.359,9.253 -3.85,9.051 -4.346,8.905 c -0.179,0.232 -0.349,0.47 -0.492,0.727 0.299,0.435 0.658,0.841 1.031,1.188 -0.08,0.177 -0.138,0.364 -0.195,0.546 -0.045,0.19 -0.1,0.376 -0.117,0.57 -0.506,0.075 -1.008,0.2 -1.498,0.376 -0.02,0.293 0.004,0.586 0.025,0.878 M 7.83,-1.834 c 3.822,6.126 4.492,15.131 -0.832,20.605 -1.803,1.852 -4.154,2.9 -6.494,3.899 -7.457,3.18 -17.44,0.219 -17.44,0.219 -7.898,-3.072 -10.64,-10.092 -10.64,-10.092 -1.754,-3.73 -1.096,-9.652 -1.096,-9.652 0.328,-2.744 -0.549,-4.169 -0.549,-4.169 l -2.195,-2.852 c -0.986,-1.427 -1.096,-1.754 -1.096,-1.754 0.11,-0.768 1.647,-1.646 1.647,-1.646 0.765,-0.22 1.754,-0.989 1.754,-0.989 l -0.44,-1.644 c -0.658,-1.646 0.33,-1.974 0.33,-1.974 l -0.109,-0.549 c -0.879,-1.207 1.096,-2.742 1.096,-2.742 l -0.219,-4.388 c 0,-1.755 2.961,-1.865 2.961,-1.865 l 3.181,0.878 c 3.731,0.22 2.961,-1.864 2.961,-1.864 l 0,-11.676 -0.07,-0.023 c 0,0 0.029,-0.007 0.07,-0.016 l 0,-0.406 0,-3.269 c 0,0 13.031,-3.954 21.496,0.864 l 5.406,1.801 c 0,0 -0.333,6.334 -1.833,7 -1.5,0.666 -2.582,2.434 -2.582,2.434 -1.86,3.724 -3.492,7.848 -2.582,12.063 0.906,4.196 5.054,8.249 7.275,11.807"
             id="path3876"
             style="fill:#ffffff;fill-opacity:1;fill-rule:nonzero;stroke:none" /></g><g
           transform="translate(50.4502,42.4814)"
           id="g3878"><path
             d="m 0,0 c -0.484,0.188 -1.045,0.073 -1.439,-0.25 -0.387,-0.331 -0.594,-0.863 -0.497,-1.373 0.081,-0.498 0.459,-0.95 0.936,-1.114 0.484,-0.188 1.043,-0.075 1.438,0.251 0.386,0.331 0.595,0.862 0.496,1.372 C 0.855,-0.616 0.477,-0.164 0,0"
             id="path3880"
             style="fill:#ffffff;fill-opacity:1;fill-rule:nonzero;stroke:none" /></g></g></g></g></svg>