<?xml version="1.0" encoding="UTF-8" standalone="no"?>
<!-- Created with Inkscape (http://www.inkscape.org/) -->

<svg
   xmlns:dc="http://purl.org/dc/elements/1.1/"
   xmlns:cc="http://creativecommons.org/ns#"
   xmlns:rdf="http://www.w3.org/1999/02/22-rdf-syntax-ns#"
   xmlns:svg="http://www.w3.org/2000/svg"
   xmlns="http://www.w3.org/2000/svg"
   version="1.1"
   width="103.46438"
   height="103.46438"
   id="svg3004"
   xml:space="preserve"><metadata
     id="metadata3010"><rdf:RDF><cc:Work
         rdf:about=""><dc:format>image/svg+xml</dc:format><dc:type
           rdf:resource="http://purl.org/dc/dcmitype/StillImage" /><dc:title></dc:title></cc:Work></rdf:RDF></metadata><defs
     id="defs3008"><clipPath
       id="clipPath3018"><path
         d="m 0,82.771 82.771,0 L 82.771,0 0,0 0,82.771 z"
         id="path3020" /></clipPath></defs><g
     transform="matrix(1.25,0,0,-1.25,0,103.46438)"
     id="g3012"><g
       id="g3014"><g
         clip-path="url(#clipPath3018)"
         id="g3016"><g
           transform="translate(82.4883,41.3853)"
           id="g3022"><path
             d="m 0,0 c 0,-22.699 -18.402,-41.102 -41.103,-41.102 -22.7,0 -41.102,18.403 -41.102,41.102 0,22.7 18.402,41.103 41.102,41.103 C -18.402,41.103 0,22.7 0,0"
             id="path3024"
             style="fill:#92d5e3;fill-opacity:1;fill-rule:nonzero;stroke:none" /></g><g
           transform="translate(68.9902,41.8486)"
           id="g3026"><path
             d="m 0,0 c -5.178,7.366 -11.786,14.555 -20.632,17.317 -6.031,1.884 -12.373,0.946 -17.975,-1.789 -4.546,-2.219 -8.541,-5.601 -11.942,-9.316 -1.665,-1.82 -3.284,-3.765 -4.618,-5.847 -0.468,-0.729 -0.366,-1.437 0.02,-1.964 5.192,-7.347 11.938,-14.448 20.903,-16.863 6.251,-1.684 12.723,-0.467 18.404,2.438 4.274,2.186 8.088,5.316 11.4,8.769 1.591,1.657 3.131,3.426 4.44,5.319 0.358,0.519 0.363,1.418 0,1.936 m -31.914,5.813 c -0.461,-0.757 -0.55,-0.968 -0.756,-1.814 -0.204,-0.839 -0.262,-1.475 -0.28,-2.349 -0.051,-2.47 -3.886,-2.474 -3.834,0 0.076,3.68 1.461,7.579 5.008,9.245 1.539,0.722 3.346,1.206 5.064,1.047 1.041,-0.095 1.917,-0.799 1.917,-1.917 0,-0.972 -0.875,-2.012 -1.917,-1.917 -0.379,0.036 -0.769,0.021 -1.148,-0.012 -0.073,-0.007 -0.146,-0.013 -0.218,-0.021 -0.194,-0.032 -0.387,-0.067 -0.578,-0.114 -0.231,-0.054 -0.462,-0.115 -0.688,-0.19 C -29.463,7.732 -29.582,7.692 -29.699,7.647 -29.713,7.642 -29.723,7.638 -29.734,7.634 -29.975,7.52 -30.214,7.4 -30.44,7.26 -30.56,7.186 -30.68,7.111 -30.794,7.029 -30.822,7.01 -30.843,6.995 -30.861,6.982 -30.864,6.981 -30.865,6.979 -30.868,6.976 -31.1,6.778 -31.324,6.571 -31.525,6.342 -31.562,6.3 -31.799,5.99 -31.703,6.128 -31.776,6.025 -31.849,5.921 -31.914,5.813 M -8.063,-5.473 c -0.846,-0.841 -1.723,-1.65 -2.626,-2.428 -0.466,-0.402 -0.943,-0.792 -1.425,-1.175 -0.025,-0.019 -0.138,-0.107 -0.204,-0.158 -0.095,-0.074 -0.19,-0.145 -0.286,-0.217 -0.301,-0.226 -0.605,-0.445 -0.912,-0.664 -1.128,-0.799 -2.301,-1.533 -3.511,-2.202 -0.596,-0.328 -1.204,-0.633 -1.819,-0.922 -0.155,-0.074 -0.312,-0.143 -0.467,-0.215 -0.026,-0.01 -0.227,-0.097 -0.295,-0.128 -0.331,-0.138 -0.666,-0.268 -1.003,-0.393 -1.146,-0.427 -2.326,-0.764 -3.521,-1.021 -0.289,-0.063 -0.58,-0.115 -0.869,-0.167 -0.091,-0.015 -0.628,-0.093 -0.651,-0.099 -0.622,-0.077 -1.249,-0.12 -1.875,-0.142 -0.614,-0.024 -1.228,-0.013 -1.841,0.017 -0.311,0.016 -0.623,0.043 -0.934,0.071 -0.145,0.013 -0.29,0.031 -0.435,0.048 0.024,-10e-4 -0.361,0.052 -0.378,0.054 -1.385,0.218 -2.742,0.588 -4.06,1.06 -2.758,0.986 -5.636,2.811 -8.026,4.821 -3.028,2.546 -5.644,5.562 -7.975,8.753 0.16,0.224 0.324,0.445 0.488,0.665 0.097,0.129 0.193,0.257 0.291,0.385 0.006,0.009 0.011,0.014 0.016,0.022 0.017,0.021 0.037,0.046 0.061,0.078 0.265,0.338 0.536,0.672 0.808,1.004 0.622,0.753 1.268,1.488 1.931,2.206 1.617,1.748 3.362,3.38 5.228,4.859 0.023,0.019 0.115,0.089 0.18,0.14 0.099,0.075 0.198,0.15 0.297,0.223 0.252,0.19 0.508,0.374 0.766,0.557 0.565,0.401 1.144,0.784 1.732,1.151 0.188,0.118 0.38,0.231 0.571,0.344 -1.68,-2.295 -2.674,-5.124 -2.674,-8.187 0,-7.665 6.212,-13.878 13.876,-13.878 7.665,0 13.877,6.213 13.877,13.878 0,3.222 -1.101,6.186 -2.943,8.541 5,-2.943 9.242,-7.658 12.653,-12.354 -0.124,-0.158 -0.28,-0.357 -0.342,-0.434 -1.158,-1.432 -2.4,-2.794 -3.703,-4.093"
             id="path3028"
             style="fill:#ffffff;fill-opacity:1;fill-rule:nonzero;stroke:none" /></g></g></g></g></svg>